<svg height="24" viewBox="0 0 24 24" width="24" xmlns="http://www.w3.org/2000/svg" fill-rule="evenodd" clip-rule="evenodd" stroke-linejoin="round" stroke-miterlimit="2"><path fill="#358C99" fill-rule="nonzero" d="M0 0h24v24H0z"/><path d="M6.4 7.8H5v9.8c.017.745.645 1.399 1.4 1.4h9.8v-1.4l-8.403-.036c-1.4.004-1.405-.008-1.426-1.377L6.4 7.8zM17.6 5H9.2c-.77 0-1.4.63-1.4 1.4v8.4c0 .77.63 1.4 1.4 1.4h8.4c.77 0 1.4-.63 1.4-1.4V6.4c0-.77-.63-1.4-1.4-1.4zm-.7 6.3h-2.8v2.8h-1.4v-2.8H9.9V9.9h2.8V7.1h1.4v2.8h2.8v1.4z" fill="#fff" fill-rule="nonzero"/></svg>
